<svg xmlns="http://www.w3.org/2000/svg" viewBox="0 0 512 512" width="192" height="192">
  <defs>
    <linearGradient id="bg" x1="0%" y1="0%" x2="100%" y2="100%">
      <stop offset="0%" stop-color="#1d2c4d"/>
      <stop offset="100%" stop-color="#0c1425"/>
    </linearGradient>
    <linearGradient id="gold" x1="0%" y1="0%" x2="100%" y2="100%">
      <stop offset="0%" stop-color="#ffe08a"/>
      <stop offset="50%" stop-color="#f6c453"/>
      <stop offset="100%" stop-color="#c9922a"/>
    </linearGradient>
  </defs>
  <rect width="192" height="192" rx="112" fill="url(#bg)"/>
  <circle cx="256" cy="268" r="190" fill="#1b6b4a" stroke="#2f9a6c" stroke-width="10"/>
  <g transform="translate(96, 120)">
    <g transform="rotate(-18 60 200)">
      <rect x="0" y="40" width="130" height="180" rx="16" fill="#fdfbf5" stroke="#d9d0bd" stroke-width="4"/>
      <text x="16" y="86" font-family="Georgia, serif" font-size="42" font-weight="700" fill="#1c1c1c">K</text>
      <text x="65" y="158" font-family="Georgia, serif" font-size="76" fill="#1c1c1c" text-anchor="middle">♠</text>
    </g>
    <g transform="translate(95, 0)">
      <rect x="0" y="20" width="130" height="180" rx="16" fill="#fdfbf5" stroke="#d9d0bd" stroke-width="4"/>
      <text x="16" y="66" font-family="Georgia, serif" font-size="42" font-weight="700" fill="#c62828">7</text>
      <text x="65" y="138" font-family="Georgia, serif" font-size="76" fill="#c62828" text-anchor="middle">♥</text>
    </g>
    <g transform="translate(190, 0) rotate(18 70 200)">
      <rect x="0" y="40" width="130" height="180" rx="16" fill="#fdfbf5" stroke="#d9d0bd" stroke-width="4"/>
      <text x="16" y="86" font-family="Georgia, serif" font-size="42" font-weight="700" fill="#1c1c1c">A</text>
      <text x="65" y="158" font-family="Georgia, serif" font-size="76" fill="#1c1c1c" text-anchor="middle">♣</text>
    </g>
  </g>
  <circle cx="256" cy="108" r="40" fill="url(#gold)"/>
  <text x="256" y="124" font-family="sans-serif" font-size="46" font-weight="900" fill="#2b1d00" text-anchor="middle">★</text>
</svg>
